<svg xmlns="http://www.w3.org/2000/svg" xmlns:xlink="http://www.w3.org/1999/xlink" width="255" zoomAndPan="magnify" viewBox="0 0 191.25 127.499994" height="170" preserveAspectRatio="xMidYMid meet" version="1.0"><defs><clipPath id="9de62ad2f8"><path d="M 0 0 L 190.503906 0 L 190.503906 127 L 0 127 Z M 0 0 " clip-rule="nonzero"/></clipPath></defs><g clip-path="url(#9de62ad2f8)"><path fill="#ffffff" d="M 0 0 L 190.503906 0 L 190.503906 127 L 0 127 Z M 0 0 " fill-opacity="1" fill-rule="nonzero"/><path fill="#ffffff" d="M 0 0 L 190.503906 0 L 190.503906 127 L 0 127 Z M 0 0 " fill-opacity="1" fill-rule="nonzero"/><path fill="#ff3d00" d="M 0.078125 -1.386719 L 190.421875 -1.386719 L 190.421875 128.601562 L 0.078125 128.601562 Z M 0.078125 -1.386719 " fill-opacity="1" fill-rule="nonzero"/></g><path fill="#ffeb3b" d="M 81.742188 47.730469 C 78.382812 44.9375 78.558594 38.625 74.910156 35.5625 C 79.519531 36.019531 80.558594 43.355469 84.355469 45.828125 C 84.433594 45.882812 84.480469 45.929688 84.535156 45.976562 C 83.613281 46.535156 82.761719 47.171875 81.945312 47.867188 C 81.875 47.828125 81.8125 47.789062 81.742188 47.730469 Z M 84.554688 45.96875 C 85.464844 45.417969 86.386719 44.886719 87.382812 44.476562 C 87.34375 44.433594 87.3125 44.390625 87.261719 44.34375 C 83.898438 41.300781 84.015625 33.894531 79.539062 32.722656 C 82.664062 36.3125 81.503906 42.523438 84.382812 45.8125 C 84.441406 45.871094 84.496094 45.914062 84.554688 45.96875 Z M 87.414062 44.46875 C 88.398438 44.066406 89.4375 43.761719 90.492188 43.511719 C 90.453125 43.449219 90.429688 43.394531 90.371094 43.324219 C 87.53125 39.792969 88.800781 32.496094 84.558594 30.636719 C 87.078125 34.675781 84.96875 40.628906 87.300781 44.324219 C 87.335938 44.382812 87.375 44.421875 87.414062 44.46875 Z M 90.40625 43.320312 C 90.4375 43.394531 90.476562 43.445312 90.511719 43.507812 C 91.542969 43.265625 92.621094 43.148438 93.707031 43.070312 C 93.671875 42.988281 93.652344 42.910156 93.59375 42.8125 C 91.335938 38.882812 93.734375 31.871094 89.835938 29.371094 C 91.699219 33.753906 88.683594 39.304688 90.40625 43.320312 Z M 76.117188 55.617188 C 76.542969 54.613281 77.09375 53.679688 77.660156 52.761719 C 77.601562 52.75 77.554688 52.730469 77.480469 52.722656 C 72.976562 52.242188 68.722656 46.179688 64.410156 47.871094 C 69.042969 48.941406 71.757812 54.640625 76.015625 55.605469 C 76.050781 55.613281 76.082031 55.613281 76.117188 55.617188 Z M 93.636719 42.808594 C 93.664062 42.902344 93.699219 42.980469 93.734375 43.0625 C 94.242188 43.027344 94.730469 42.914062 95.253906 42.914062 C 95.835938 42.914062 96.375 43.039062 96.941406 43.082031 C 96.921875 42.996094 96.910156 42.914062 96.871094 42.808594 C 95.25 38.570312 98.710938 32.023438 95.25 28.941406 C 96.40625 33.566406 92.5625 38.570312 93.636719 42.808594 Z M 79.425781 50.046875 C 79.5 50.089844 79.566406 50.109375 79.632812 50.140625 C 80.339844 49.324219 81.105469 48.582031 81.925781 47.882812 C 81.859375 47.839844 81.800781 47.796875 81.710938 47.757812 C 77.578125 45.90625 75.402344 38.824219 70.777344 39.09375 C 74.859375 41.546875 75.671875 47.808594 79.425781 50.046875 Z M 75.15625 58.710938 C 75.417969 57.664062 75.699219 56.621094 76.109375 55.648438 C 76.070312 55.648438 76.042969 55.640625 76.003906 55.644531 C 71.484375 55.871094 66.335938 50.550781 62.339844 52.894531 C 67.085938 53.226562 70.648438 58.4375 75.003906 58.71875 C 75.0625 58.722656 75.105469 58.714844 75.15625 58.710938 Z M 77.5 52.691406 C 77.5625 52.71875 77.617188 52.726562 77.675781 52.738281 C 78.25 51.820312 78.914062 50.972656 79.617188 50.15625 C 79.546875 50.128906 79.492188 50.097656 79.402344 50.074219 C 75.03125 48.890625 71.773438 42.242188 67.253906 43.234375 C 71.667969 45.015625 73.449219 51.070312 77.5 52.691406 Z M 110.972656 50.265625 C 111.667969 51.082031 112.3125 51.925781 112.878906 52.839844 C 112.917969 52.792969 112.957031 52.757812 113 52.691406 C 115.476562 48.890625 122.796875 47.847656 123.25 43.234375 C 120.195312 46.886719 113.886719 46.710938 111.101562 50.074219 C 111.046875 50.140625 111.015625 50.199219 110.972656 50.265625 Z M 100.117188 43.546875 C 100.113281 43.472656 100.113281 43.40625 100.097656 43.320312 C 99.164062 38.882812 103.605469 32.957031 100.667969 29.371094 C 101.085938 34.117188 96.507812 38.460938 96.910156 42.8125 C 96.917969 42.914062 96.941406 42.996094 96.964844 43.085938 C 98.03125 43.171875 99.09375 43.296875 100.117188 43.546875 Z M 114.414062 55.707031 C 114.828125 56.695312 115.117188 57.742188 115.371094 58.796875 C 115.414062 58.765625 115.453125 58.753906 115.496094 58.714844 C 119.023438 55.867188 126.308594 57.140625 128.164062 52.890625 C 124.132812 55.417969 118.1875 53.304688 114.496094 55.640625 C 114.46875 55.664062 114.445312 55.6875 114.414062 55.707031 Z M 115.503906 58.753906 C 115.457031 58.777344 115.421875 58.800781 115.378906 58.828125 C 115.632812 59.863281 115.757812 60.933594 115.847656 62.027344 C 115.902344 62 115.953125 61.988281 116.015625 61.953125 C 119.941406 59.691406 126.9375 62.089844 129.433594 58.1875 C 125.058594 60.050781 119.515625 57.03125 115.503906 58.753906 Z M 116.015625 65.222656 C 120.246094 63.605469 126.785156 67.074219 129.859375 63.605469 C 125.242188 64.765625 120.246094 60.910156 116.015625 61.992188 C 115.953125 62.007812 115.902344 62.035156 115.847656 62.050781 C 115.890625 62.605469 116.015625 63.144531 116.015625 63.710938 C 116.015625 64.246094 115.898438 64.746094 115.859375 65.265625 C 115.914062 65.253906 115.957031 65.25 116.015625 65.222656 Z M 112.894531 52.863281 C 113.449219 53.765625 113.992188 54.691406 114.402344 55.679688 C 114.429688 55.652344 114.453125 55.632812 114.484375 55.605469 C 117.523438 52.242188 124.914062 52.355469 126.085938 47.871094 C 122.5 51 116.296875 49.835938 113.019531 52.722656 C 112.964844 52.769531 112.9375 52.8125 112.894531 52.863281 Z M 103.21875 44.511719 C 104.222656 44.925781 105.152344 45.46875 106.070312 46.03125 C 106.089844 45.957031 106.109375 45.898438 106.117188 45.8125 C 106.597656 41.300781 112.652344 37.042969 110.964844 32.722656 C 109.894531 37.363281 104.203125 40.078125 103.242188 44.34375 C 103.222656 44.402344 103.222656 44.457031 103.21875 44.511719 Z M 100.140625 43.554688 C 101.1875 43.808594 102.214844 44.09375 103.195312 44.503906 C 103.199219 44.441406 103.207031 44.398438 103.203125 44.328125 C 102.972656 39.800781 108.285156 34.644531 105.945312 30.640625 C 105.617188 35.394531 100.417969 38.964844 100.132812 43.328125 C 100.125 43.410156 100.136719 43.480469 100.140625 43.554688 Z M 106.148438 45.828125 C 106.117188 45.90625 106.105469 45.972656 106.089844 46.042969 C 107.007812 46.609375 107.859375 47.257812 108.671875 47.960938 C 108.699219 47.886719 108.734375 47.828125 108.761719 47.730469 C 109.941406 43.355469 116.582031 40.09375 115.59375 35.5625 C 113.8125 39.984375 107.765625 41.769531 106.148438 45.828125 Z M 108.792969 47.757812 C 108.75 47.835938 108.722656 47.90625 108.691406 47.976562 C 109.511719 48.679688 110.261719 49.429688 110.960938 50.25 C 111 50.183594 111.035156 50.132812 111.074219 50.042969 C 112.921875 45.90625 119.996094 43.726562 119.722656 39.09375 C 117.273438 43.179688 111.023438 43.996094 108.792969 47.757812 Z M 74.667969 61.917969 C 74.761719 60.835938 74.898438 59.773438 75.152344 58.742188 C 75.101562 58.746094 75.058594 58.746094 74.996094 58.757812 C 70.566406 59.695312 64.652344 55.246094 61.070312 58.1875 C 65.808594 57.765625 70.148438 62.355469 74.492188 61.953125 C 74.554688 61.941406 74.609375 61.925781 74.667969 61.917969 Z M 108.695312 79.441406 C 107.882812 80.136719 107.035156 80.792969 106.117188 81.359375 C 106.132812 81.367188 106.136719 81.375 106.148438 81.386719 C 109.941406 83.863281 110.984375 91.195312 115.59375 91.652344 C 111.945312 88.589844 112.117188 82.273438 108.761719 79.484375 C 108.738281 79.460938 108.71875 79.453125 108.695312 79.441406 Z M 106.089844 81.375 C 105.179688 81.9375 104.253906 82.480469 103.257812 82.898438 C 106.59375 85.953125 106.492188 93.328125 110.964844 94.492188 C 107.839844 90.902344 109 84.6875 106.117188 81.402344 C 106.105469 81.394531 106.097656 81.386719 106.089844 81.375 Z M 100.121094 83.871094 C 100.125 83.878906 100.125 83.882812 100.132812 83.890625 C 102.972656 87.421875 101.703125 94.71875 105.945312 96.578125 C 103.425781 92.546875 105.527344 86.609375 103.214844 82.910156 C 102.226562 83.324219 101.183594 83.617188 100.121094 83.871094 Z M 100.097656 83.894531 C 100.09375 83.890625 100.09375 83.886719 100.089844 83.882812 C 99.050781 84.132812 97.972656 84.253906 96.878906 84.339844 C 96.890625 84.363281 96.890625 84.378906 96.902344 84.402344 C 99.164062 88.332031 96.765625 95.34375 100.664062 97.84375 C 98.804688 93.460938 101.816406 87.910156 100.097656 83.894531 Z M 111.074219 77.167969 C 111.046875 77.152344 111.019531 77.144531 110.992188 77.128906 C 110.292969 77.953125 109.539062 78.710938 108.722656 79.417969 C 108.75 79.429688 108.761719 79.445312 108.792969 79.457031 C 112.921875 81.308594 115.097656 88.390625 119.722656 88.117188 C 115.644531 85.667969 114.832031 79.40625 111.074219 77.167969 Z M 115.410156 68.5 C 115.160156 69.550781 114.859375 70.585938 114.457031 71.570312 C 114.476562 71.570312 114.484375 71.574219 114.503906 71.574219 C 119.023438 71.347656 124.171875 76.667969 128.167969 74.324219 C 123.421875 73.992188 119.859375 68.785156 115.5 68.5 C 115.46875 68.496094 115.441406 68.5 115.410156 68.5 Z M 96.863281 84.40625 C 96.859375 84.382812 96.847656 84.367188 96.84375 84.34375 C 96.308594 84.386719 95.796875 84.503906 95.25 84.503906 C 94.695312 84.503906 94.164062 84.382812 93.621094 84.339844 C 93.628906 84.363281 93.628906 84.378906 93.636719 84.40625 C 95.25 88.644531 91.789062 95.191406 95.25 98.269531 C 94.097656 93.648438 97.941406 88.644531 96.863281 84.40625 Z M 115.855469 65.292969 C 115.773438 66.371094 115.65625 67.4375 115.417969 68.464844 C 115.449219 68.460938 115.476562 68.464844 115.511719 68.457031 C 119.941406 67.519531 125.855469 71.96875 129.433594 69.027344 C 124.699219 69.445312 120.359375 64.859375 116.015625 65.261719 C 115.957031 65.265625 115.90625 65.285156 115.855469 65.292969 Z M 113 74.523438 C 112.976562 74.507812 112.949219 74.507812 112.921875 74.5 C 112.355469 75.425781 111.710938 76.28125 111.011719 77.105469 C 111.042969 77.117188 111.0625 77.128906 111.097656 77.140625 C 115.46875 78.320312 118.722656 84.972656 123.246094 83.980469 C 118.835938 82.199219 117.054688 76.144531 113 74.523438 Z M 114.445312 71.601562 C 114.03125 72.609375 113.5 73.550781 112.9375 74.46875 C 112.964844 74.472656 112.984375 74.484375 113.019531 74.488281 C 117.523438 74.96875 121.773438 81.03125 126.085938 79.339844 C 121.453125 78.269531 118.742188 72.566406 114.484375 71.605469 C 114.472656 71.605469 114.457031 71.605469 114.445312 71.601562 Z M 90.371094 83.867188 C 89.320312 83.613281 88.28125 83.324219 87.300781 82.910156 C 87.507812 87.433594 82.226562 92.578125 84.5625 96.574219 C 84.890625 91.820312 90.089844 88.25 90.375 83.886719 C 90.371094 83.882812 90.371094 83.878906 90.371094 83.867188 Z M 76.039062 71.546875 C 75.636719 70.554688 75.332031 69.511719 75.078125 68.445312 C 75.054688 68.464844 75.03125 68.472656 75.003906 68.496094 C 71.480469 71.339844 64.195312 70.066406 62.339844 74.320312 C 66.371094 71.792969 72.316406 73.90625 76.003906 71.570312 C 76.019531 71.5625 76.023438 71.554688 76.039062 71.546875 Z M 79.453125 77.0625 C 78.757812 76.238281 78.117188 75.378906 77.554688 74.457031 C 77.535156 74.484375 77.519531 74.496094 77.5 74.523438 C 75.027344 78.320312 67.707031 79.367188 67.253906 83.980469 C 70.308594 80.328125 76.613281 80.5 79.402344 77.140625 C 79.421875 77.113281 79.4375 77.085938 79.453125 77.0625 Z M 90.40625 83.882812 C 90.40625 83.890625 90.40625 83.890625 90.40625 83.898438 C 91.339844 88.335938 86.898438 94.257812 89.835938 97.847656 C 89.414062 93.101562 93.996094 88.757812 93.59375 84.40625 C 93.59375 84.382812 93.585938 84.367188 93.582031 84.339844 C 92.503906 84.25 91.4375 84.128906 90.40625 83.882812 Z M 74.996094 68.460938 C 75.027344 68.445312 75.042969 68.429688 75.070312 68.417969 C 74.828125 67.375 74.714844 66.292969 74.636719 65.199219 C 74.589844 65.21875 74.546875 65.230469 74.492188 65.261719 C 70.566406 67.523438 63.566406 65.125 61.070312 69.027344 C 65.445312 67.164062 70.988281 70.183594 74.996094 68.460938 Z M 77.539062 74.425781 C 76.988281 73.511719 76.460938 72.582031 76.046875 71.574219 C 76.035156 71.589844 76.027344 71.59375 76.019531 71.605469 C 72.980469 74.972656 65.589844 74.855469 64.414062 79.339844 C 68.003906 76.210938 74.207031 77.375 77.484375 74.488281 C 77.507812 74.46875 77.519531 74.449219 77.539062 74.425781 Z M 74.488281 65.222656 C 74.542969 65.210938 74.585938 65.1875 74.632812 65.167969 C 74.597656 64.675781 74.488281 64.207031 74.488281 63.707031 C 74.488281 63.101562 74.613281 62.53125 74.664062 61.9375 C 74.601562 61.957031 74.554688 61.960938 74.488281 61.988281 C 70.253906 63.605469 63.71875 60.140625 60.644531 63.605469 C 65.257812 62.449219 70.253906 66.300781 74.488281 65.222656 Z M 81.710938 79.457031 C 81.722656 79.429688 81.734375 79.410156 81.746094 79.386719 C 80.929688 78.683594 80.175781 77.914062 79.480469 77.085938 C 79.460938 77.117188 79.445312 77.136719 79.429688 77.167969 C 77.585938 81.308594 70.511719 83.488281 70.785156 88.117188 C 73.226562 84.03125 79.480469 83.214844 81.710938 79.457031 Z M 84.394531 81.363281 C 84.394531 81.375 84.382812 81.386719 84.382812 81.402344 C 83.90625 85.914062 77.851562 90.171875 79.539062 94.492188 C 80.605469 89.859375 86.273438 87.148438 87.253906 82.898438 C 86.25 82.476562 85.316406 81.929688 84.394531 81.363281 Z M 84.355469 81.386719 C 84.359375 81.371094 84.359375 81.363281 84.363281 81.351562 C 83.4375 80.777344 82.589844 80.117188 81.765625 79.410156 C 81.757812 79.4375 81.746094 79.453125 81.738281 79.484375 C 80.554688 83.859375 73.914062 87.121094 74.90625 91.652344 C 76.6875 87.230469 82.738281 85.445312 84.355469 81.386719 Z M 96.957031 55.128906 C 97.292969 55.363281 97.605469 55.628906 97.929688 55.878906 C 98.332031 55.628906 98.722656 55.371094 99.136719 55.144531 C 98.8125 54.90625 98.492188 54.664062 98.160156 54.4375 C 97.746094 54.65625 97.355469 54.894531 96.957031 55.128906 Z M 95.25 50.785156 C 98.386719 49.453125 101.773438 48.589844 105.367188 48.441406 C 102.515625 46.371094 99.042969 45.117188 95.25 45.117188 C 91.460938 45.117188 87.984375 46.375 85.136719 48.441406 C 88.726562 48.589844 92.113281 49.453125 95.25 50.785156 Z M 108.503906 51.425781 C 105.550781 51.621094 102.761719 52.367188 100.160156 53.464844 C 100.507812 53.699219 100.878906 53.902344 101.21875 54.152344 C 103.675781 53.101562 106.285156 52.347656 109.070312 52.121094 C 108.789062 51.734375 108.390625 51.292969 108.503906 51.425781 Z M 106.765625 49.597656 C 103.417969 49.738281 100.234375 50.492188 97.289062 51.714844 C 97.699219 51.925781 98.097656 52.152344 98.5 52.378906 C 101.328125 51.207031 104.390625 50.492188 107.609375 50.34375 C 107.167969 49.894531 106.578125 49.433594 106.765625 49.597656 Z M 111.476562 68.28125 C 112.136719 66.449219 112.554688 64.507812 112.554688 62.449219 C 112.554688 56.519531 109.574219 52.773438 109.800781 53.125 C 107.210938 53.414062 104.785156 54.1875 102.507812 55.222656 C 106.585938 58.640625 109.761719 63.109375 111.476562 68.28125 Z M 94.304688 56.929688 C 94.640625 57.175781 94.925781 57.484375 95.25 57.75 C 95.574219 57.484375 95.863281 57.175781 96.199219 56.929688 C 95.875 56.675781 95.589844 56.371094 95.25 56.132812 C 94.914062 56.371094 94.628906 56.675781 94.304688 56.929688 Z M 95.25 52.726562 C 94.820312 52.949219 94.367188 53.132812 93.949219 53.378906 C 94.386719 53.601562 94.828125 53.816406 95.25 54.0625 C 95.675781 53.816406 96.117188 53.601562 96.554688 53.378906 C 96.132812 53.132812 95.683594 52.949219 95.25 52.726562 Z M 102.417969 77.472656 C 102.417969 70.730469 99.648438 64.6875 95.25 60.257812 C 90.855469 64.6875 88.082031 70.730469 88.082031 77.472656 C 88.082031 77.71875 88.113281 77.960938 88.121094 78.207031 C 90.300781 79.199219 92.703125 79.78125 95.25 79.78125 C 97.800781 79.78125 100.203125 79.199219 102.378906 78.207031 C 102.390625 77.960938 102.417969 77.71875 102.417969 77.472656 Z M 89.933594 56.179688 C 85.296875 60.105469 81.957031 65.519531 80.660156 71.695312 C 80.285156 71.101562 80.871094 72.109375 82.039062 73.496094 C 83.007812 66.90625 86.363281 61.125 91.160156 56.964844 C 90.753906 56.699219 90.359375 56.417969 89.933594 56.179688 Z M 93.867188 58.972656 C 93.539062 58.6875 93.257812 58.355469 92.914062 58.089844 C 88.039062 62.46875 84.734375 68.769531 84.230469 75.726562 C 84.71875 76.15625 85.226562 76.566406 85.78125 76.929688 C 85.929688 69.820312 89.046875 63.5 93.867188 58.972656 Z M 97.585938 58.089844 C 97.246094 58.355469 96.960938 58.6875 96.636719 58.972656 C 101.460938 63.5 104.578125 69.820312 104.726562 76.929688 C 105.273438 76.582031 105.785156 76.171875 106.273438 75.753906 C 105.746094 68.671875 102.453125 62.464844 97.585938 58.089844 Z M 109.84375 71.691406 C 108.546875 65.515625 105.203125 60.105469 100.566406 56.175781 C 100.144531 56.414062 99.753906 56.695312 99.347656 56.960938 C 104.148438 61.125 107.507812 66.910156 108.472656 73.511719 C 109.632812 72.125 110.21875 71.101562 109.84375 71.691406 Z M 81.429688 52.121094 C 84.210938 52.351562 86.828125 53.101562 89.28125 54.152344 C 89.617188 53.902344 89.988281 53.703125 90.335938 53.464844 C 87.738281 52.367188 84.953125 51.621094 81.996094 51.425781 C 82.113281 51.292969 81.714844 51.734375 81.429688 52.121094 Z M 87.996094 55.222656 C 85.71875 54.1875 83.289062 53.414062 80.703125 53.125 C 80.929688 52.773438 77.949219 56.726562 77.949219 62.449219 C 77.949219 64.503906 78.367188 66.449219 79.023438 68.277344 C 80.742188 63.109375 83.917969 58.640625 87.996094 55.222656 Z M 91.367188 55.144531 C 91.78125 55.371094 92.171875 55.628906 92.574219 55.878906 C 92.902344 55.628906 93.210938 55.363281 93.546875 55.128906 C 93.148438 54.890625 92.753906 54.65625 92.34375 54.4375 C 92.011719 54.664062 91.691406 54.90625 91.367188 55.144531 Z M 92.003906 52.378906 C 92.402344 52.144531 92.804688 51.925781 93.214844 51.714844 C 90.273438 50.496094 87.089844 49.742188 83.734375 49.597656 C 83.921875 49.429688 83.332031 49.894531 82.890625 50.339844 C 86.109375 50.492188 89.179688 51.210938 92.003906 52.378906 Z M 92.003906 52.378906 " fill-opacity="1" fill-rule="nonzero"/></svg>