<svg xmlns="http://www.w3.org/2000/svg" xmlns:xlink="http://www.w3.org/1999/xlink" width="255" zoomAndPan="magnify" viewBox="0 0 191.25 127.499994" height="170" preserveAspectRatio="xMidYMid meet" version="1.0"><defs><clipPath id="07e8bb61f4"><path d="M 0 0 L 190.503906 0 L 190.503906 127 L 0 127 Z M 0 0 " clip-rule="nonzero"/></clipPath><clipPath id="802aeeb055"><path d="M 0 52 L 190.503906 52 L 190.503906 127 L 0 127 Z M 0 52 " clip-rule="nonzero"/></clipPath></defs><g clip-path="url(#07e8bb61f4)"><path fill="#ffffff" d="M 0 0 L 190.503906 0 L 190.503906 127 L 0 127 Z M 0 0 " fill-opacity="1" fill-rule="nonzero"/><path fill="#ffffff" d="M 0 0 L 190.503906 0 L 190.503906 127 L 0 127 Z M 0 0 " fill-opacity="1" fill-rule="nonzero"/><rect x="-19.125" width="229.5" fill="#ffffff" y="-12.749999" height="152.999993" fill-opacity="1"/><path stroke-linecap="butt" transform="matrix(0.497426, 0, 0, 0.498024, -4.603332, -22.741061)" fill="none" stroke-linejoin="miter" d="M 0.498292 0.499722 L 400.502923 0.499722 L 400.502923 350.499898 L 0.498292 350.499898 Z M 0.498292 0.499722 " stroke="#cbcbcb" stroke-width="1" stroke-opacity="1" stroke-miterlimit="10"/><path fill="#f6f6f6" d="M 44.277344 52.574219 C 72.417969 52.574219 76.808594 112.949219 88.183594 112.949219 C 99.558594 112.949219 104.578125 76.859375 120.664062 76.859375 C 142.769531 76.859375 153.832031 142.132812 191.019531 142.132812 C 191.066406 142.132812 191.117188 142.132812 191.164062 142.132812 L 191.164062 -19.40625 L -1.136719 -19.40625 L -1.136719 130.296875 C 5.496094 105.972656 22.539062 52.574219 44.277344 52.574219 Z M 148.707031 3.382812 C 163.828125 3.382812 176.085938 15.65625 176.085938 30.796875 C 176.085938 45.933594 163.828125 58.203125 148.707031 58.203125 C 133.589844 58.203125 121.332031 45.933594 121.332031 30.796875 C 121.332031 15.65625 133.589844 3.382812 148.707031 3.382812 Z M 148.707031 3.382812 " fill-opacity="1" fill-rule="nonzero"/></g><g clip-path="url(#802aeeb055)"><path fill="#d1d2d2" d="M 191.164062 148.222656 L 191.164062 142.132812 C 191.113281 142.132812 191.066406 142.132812 191.019531 142.132812 C 153.832031 142.132812 142.773438 76.859375 120.664062 76.859375 C 104.578125 76.859375 99.558594 112.949219 88.179688 112.949219 C 76.808594 112.949219 72.417969 52.574219 44.277344 52.574219 C 22.539062 52.574219 5.496094 105.972656 -1.140625 130.296875 L -1.140625 148.222656 Z M 191.164062 148.222656 " fill-opacity="1" fill-rule="nonzero"/></g><path fill="#d1d2d2" d="M 176.085938 30.792969 C 176.085938 31.691406 176.042969 32.585938 175.953125 33.480469 C 175.867188 34.375 175.734375 35.261719 175.558594 36.140625 C 175.386719 37.019531 175.167969 37.890625 174.90625 38.75 C 174.648438 39.609375 174.347656 40.453125 174.003906 41.28125 C 173.660156 42.113281 173.277344 42.921875 172.855469 43.714844 C 172.429688 44.507812 171.972656 45.273438 171.472656 46.023438 C 170.972656 46.769531 170.441406 47.488281 169.871094 48.183594 C 169.304688 48.875 168.703125 49.539062 168.066406 50.175781 C 167.433594 50.808594 166.769531 51.414062 166.078125 51.980469 C 165.382812 52.550781 164.664062 53.085938 163.917969 53.585938 C 163.171875 54.082031 162.40625 54.542969 161.613281 54.96875 C 160.824219 55.390625 160.015625 55.773438 159.1875 56.117188 C 158.355469 56.460938 157.515625 56.761719 156.65625 57.023438 C 155.796875 57.285156 154.929688 57.503906 154.050781 57.675781 C 153.171875 57.851562 152.285156 57.984375 151.390625 58.070312 C 150.5 58.160156 149.605469 58.203125 148.707031 58.203125 C 147.8125 58.203125 146.917969 58.160156 146.023438 58.070312 C 145.132812 57.984375 144.246094 57.851562 143.367188 57.675781 C 142.488281 57.503906 141.621094 57.285156 140.761719 57.023438 C 139.902344 56.761719 139.058594 56.460938 138.230469 56.117188 C 137.402344 55.773438 136.59375 55.390625 135.804688 54.96875 C 135.011719 54.542969 134.242188 54.082031 133.5 53.585938 C 132.753906 53.085938 132.035156 52.550781 131.339844 51.980469 C 130.648438 51.414062 129.984375 50.808594 129.351562 50.175781 C 128.714844 49.539062 128.113281 48.875 127.546875 48.183594 C 126.976562 47.488281 126.441406 46.769531 125.945312 46.023438 C 125.445312 45.273438 124.988281 44.507812 124.5625 43.714844 C 124.140625 42.921875 123.757812 42.113281 123.414062 41.28125 C 123.070312 40.453125 122.769531 39.609375 122.511719 38.75 C 122.25 37.890625 122.03125 37.019531 121.855469 36.140625 C 121.683594 35.261719 121.550781 34.375 121.460938 33.480469 C 121.375 32.585938 121.332031 31.691406 121.332031 30.792969 C 121.332031 29.894531 121.375 29 121.460938 28.105469 C 121.550781 27.214844 121.683594 26.324219 121.855469 25.445312 C 122.03125 24.566406 122.25 23.695312 122.511719 22.835938 C 122.769531 21.976562 123.070312 21.132812 123.414062 20.304688 C 123.757812 19.472656 124.140625 18.664062 124.5625 17.871094 C 124.988281 17.078125 125.445312 16.3125 125.945312 15.566406 C 126.441406 14.816406 126.976562 14.097656 127.546875 13.402344 C 128.113281 12.710938 128.714844 12.046875 129.351562 11.410156 C 129.984375 10.777344 130.648438 10.171875 131.339844 9.605469 C 132.035156 9.035156 132.753906 8.5 133.5 8 C 134.242188 7.503906 135.011719 7.042969 135.804688 6.617188 C 136.59375 6.195312 137.402344 5.8125 138.230469 5.46875 C 139.058594 5.125 139.902344 4.824219 140.761719 4.5625 C 141.621094 4.300781 142.488281 4.085938 143.367188 3.910156 C 144.246094 3.734375 145.132812 3.601562 146.023438 3.515625 C 146.917969 3.425781 147.8125 3.382812 148.707031 3.382812 C 149.605469 3.382812 150.5 3.425781 151.390625 3.515625 C 152.285156 3.601562 153.171875 3.734375 154.050781 3.910156 C 154.929688 4.085938 155.796875 4.300781 156.65625 4.5625 C 157.515625 4.824219 158.355469 5.125 159.1875 5.46875 C 160.015625 5.8125 160.824219 6.195312 161.613281 6.617188 C 162.40625 7.042969 163.171875 7.503906 163.917969 8 C 164.664062 8.5 165.382812 9.035156 166.078125 9.605469 C 166.769531 10.171875 167.433594 10.777344 168.066406 11.410156 C 168.703125 12.046875 169.304688 12.710938 169.871094 13.402344 C 170.441406 14.097656 170.972656 14.816406 171.472656 15.566406 C 171.972656 16.3125 172.429688 17.078125 172.855469 17.871094 C 173.277344 18.664062 173.660156 19.472656 174.003906 20.304688 C 174.347656 21.132812 174.648438 21.976562 174.90625 22.835938 C 175.167969 23.695312 175.386719 24.566406 175.558594 25.445312 C 175.734375 26.324219 175.867188 27.214844 175.953125 28.105469 C 176.042969 29 176.085938 29.894531 176.085938 30.792969 Z M 176.085938 30.792969 " fill-opacity="1" fill-rule="nonzero"/></svg>